<svg xmlns="http://www.w3.org/2000/svg" version="1.1" x="0px" y="0px"
     viewBox="0 0 100 100" style="enable-background:new 0 0 100 100;" xml:space="preserve">
    <style type="text/css">.st0{fill:none;} .hub{fill:#008080;}</style>
    <rect class="st0" width="100" height="100"/>
    <path class="hub" d="M88.9,24.3c-1.1-1.2-2.6-2-4.2-2.1c-3.4-0.2-6.4,2.3-6.6,5.7v0c-0.1,0.7,0,1.4,0.2,2.1L58.9,41.1c-0.7-0.9-1.6-1.7-2.5-2.4  c-1.5-1-3.1-1.6-4.7-1.8V24c1.4-0.4,2.7-1.2,3.5-2.5c0.9-1.4,1.3-3,1-4.6c-0.3-1.6-1.2-3-2.6-3.9c-1.4-0.9-3-1.3-4.6-1  c-1.6,0.3-3,1.2-3.9,2.6c-0.9,1.4-1.3,3-1,4.6c0.3,1.6,1.2,3,2.6,3.9c0.6,0.4,1.2,0.7,1.9,0.9v13c-2.8,0.4-5.4,1.8-7.3,4.2  L21.8,29.9c0.2-0.7,0.3-1.3,0.2-2.1c-0.2-3.4-3.2-6-6.6-5.7c-1.6,0.1-3.1,0.9-4.2,2.1c-1.1,1.2-1.6,2.8-1.5,4.5  c0.2,3.2,2.9,5.7,6.2,5.7c0.1,0,0.3,0,0.4,0c1.5-0.1,2.9-0.8,3.9-1.8l19.4,11.2c-0.8,2-1,4.2-0.6,6.3c0.1,0.7,0.3,1.4,0.6,2.1  L29.7,58c-1.1-1.1-2.4-1.7-3.9-1.8c-3.4-0.2-6.4,2.3-6.6,5.7c-0.1,1.6,0.4,3.2,1.5,4.5c1.1,1.2,2.6,2,4.2,2.1c0.2,0,0.3,0,0.5,0  c1.5,0,2.9-0.5,4-1.5c1.2-1.1,2-2.6,2.1-4.2v0c0.1-0.7,0-1.4-0.2-2.1l9.9-5.7c0.7,0.9,1.6,1.7,2.5,2.4c1.4,1,3.1,1.6,4.7,1.8V80  c-1.4,0.4-2.7,1.3-3.5,2.5c-1.9,2.8-1.2,6.7,1.6,8.6c1.1,0.7,2.3,1.1,3.5,1.1c2,0,3.9-0.9,5.1-2.7c1.9-2.8,1.2-6.7-1.6-8.6h0  c-0.6-0.4-1.2-0.7-1.9-0.9V59.2c0.2,0,0.4-0.1,0.5-0.1c2.7-0.5,5.1-2,6.7-4.1l9.9,5.7c-0.2,0.7-0.2,1.4-0.2,2.1v0  c0.2,3.2,2.9,5.7,6.2,5.7c0.1,0,0.3,0,0.4,0c3.4-0.2,6-3.2,5.7-6.6c-0.2-3.4-3.2-6-6.6-5.7c-1.5,0.1-2.9,0.7-3.9,1.8l-9.9-5.7  c0.8-2,1-4.2,0.6-6.3c-0.1-0.7-0.3-1.4-0.6-2.1l19.4-11.2c1,1,2.4,1.7,3.9,1.8c0.2,0,0.3,0,0.4,0c3.2,0,5.9-2.5,6.2-5.7  C90.5,27.1,89.9,25.5,88.9,24.3z M16,31.3c-1.7,0.1-3.1-1.1-3.2-2.8c-0.1-0.8,0.2-1.6,0.7-2.2c0.5-0.6,1.3-1,2.1-1  c0.1,0,0.1,0,0.2,0c1.6,0,2.9,1.2,3,2.8C18.9,29.8,17.7,31.2,16,31.3z M28.3,62.5L28.3,62.5c-0.1,0.8-0.4,1.5-1,2.1  c-0.6,0.5-1.4,0.8-2.2,0.7c-0.8-0.1-1.5-0.4-2.1-1c-0.5-0.6-0.8-1.4-0.7-2.2c0.1-1.6,1.4-2.8,3-2.8c0.1,0,0.1,0,0.2,0  c0.8,0.1,1.5,0.4,2.1,1C28.1,60.9,28.4,61.7,28.3,62.5z M47,18.6c-0.2-0.8,0-1.6,0.5-2.3c0.5-0.7,1.1-1.1,1.9-1.3  c0.2,0,0.4-0.1,0.6-0.1c0.6,0,1.2,0.2,1.7,0.5c0.7,0.5,1.1,1.1,1.3,1.9c0.2,0.8,0,1.6-0.5,2.3c-0.9,1.4-2.8,1.7-4.2,0.8  C47.6,20,47.2,19.4,47,18.6z M52.5,87.7c-0.9,1.4-2.8,1.7-4.2,0.8c-1.4-0.9-1.7-2.8-0.8-4.2c0.5-0.7,1.1-1.1,1.9-1.3  c0.2,0,0.4-0.1,0.6-0.1c0.6,0,1.2,0.2,1.7,0.5h0C53.1,84.4,53.4,86.3,52.5,87.7z M51.5,56c-2.1,0.4-4.3,0-6.1-1.2  c-1.8-1.2-3-3-3.4-5.2c-0.4-2.1,0-4.3,1.2-6.1c1.6-2.3,4.1-3.5,6.7-3.5c1.6,0,3.1,0.5,4.5,1.4c1.8,1.2,3,3,3.4,5.2  c0.4,2.1,0,4.3-1.2,6.1C55.5,54.4,53.6,55.6,51.5,56z M72.4,60.3c0.5-0.6,1.3-1,2.1-1c0.1,0,0.1,0,0.2,0c1.6,0,2.9,1.2,3,2.8  c0.1,1.7-1.1,3.1-2.8,3.2c-1.7,0.1-3.1-1.1-3.2-2.8v0C71.6,61.7,71.9,60.9,72.4,60.3z M87.2,28.5c-0.1,1.7-1.6,2.9-3.2,2.8  c-1.7-0.1-2.9-1.6-2.8-3.2v0c0.1-1.7,1.6-2.9,3.2-2.8c0.8,0.1,1.5,0.4,2.1,1C87,27,87.3,27.7,87.2,28.5z"/>
    <path class="hub" d="M53.7,42.5c-3.1-2.1-7.2-1.3-9.3,1.8c-1,1.5-1.4,3.3-1,5c0.3,1.8,1.3,3.3,2.8,4.3c1.1,0.8,2.4,1.2,3.7,1.2  c0.4,0,0.9,0,1.3-0.1c1.8-0.3,3.3-1.3,4.3-2.8c1-1.5,1.4-3.3,1-5C56.2,45.1,55.2,43.5,53.7,42.5z M52.9,50c-0.5,0.8-1.3,1.3-2.3,1.5  c-0.9,0.2-1.9,0-2.6-0.5h0c-0.8-0.5-1.3-1.3-1.5-2.3c-0.2-0.9,0-1.9,0.5-2.6c0.7-1,1.8-1.5,2.9-1.5c0.7,0,1.4,0.2,2,0.6  c0.8,0.5,1.3,1.3,1.5,2.3C53.6,48.3,53.5,49.3,52.9,50z"/>
</svg>